<svg version="1" xmlns="http://www.w3.org/2000/svg" width="682.667" height="682.667" viewBox="0 0 512.000000 512.000000"><path d="M60.9 1.5c-14.8 3-27 9.6-38.4 21C10.8 34.2 4.4 46.1 1.4 61.6c-2.1 11.3-2.1 377.5 0 388.8 3 15.5 9.4 27.4 21.1 39.1 11.7 11.7 23.6 18.1 39.1 21.1 11.3 2.1 377.5 2.1 388.8 0 15.5-3 27.4-9.4 39.1-21.1 11.7-11.7 18.1-23.6 21.1-39.1 2.1-11.3 2.1-377.5 0-388.8-3-15.5-9.4-27.4-21.1-39.1-11.7-11.7-23.6-18.1-39.1-21.1-10.8-2-379.2-1.9-389.5.1zm61.5 16.6c2.1.6 13.9 7.1 26 14.4 12.2 7.4 23 13.7 23.9 14.1 1.5.5 1.7-.2 1.7-6 0-8 2.6-14.3 7.7-18.5 6.3-5.2 15.6-6.5 22.8-3.2C209.2 21 404 138.1 408.6 141.6c1.8 1.3 4.4 4.7 5.8 7.6l2.6 5.2V480h-25V320.6c0-126.3-.3-159.6-1.2-160.4C389.1 158.9 199.9 45 199.4 45c-.3 0-.3 4.1-.2 9.1l.3 9.1 64.3 38.8c35.4 21.3 65.9 40.2 67.7 42 6.3 6.1 6.5 7.6 6.5 55v42.7l19 10.8c10.5 5.9 18.8 11 18.5 11.3-.3.3-8.8 5.4-18.8 11.3l-18.2 10.7-.3 96.6-.2 96.6h-24v-89c0-49-.3-89-.7-89-.5.1-26.2 15.1-57.3 33.4l-56.5 33.3-.3 63.6-.2 63.7h-25v-79.1c0-65.8-.2-79-1.3-78.7-.8.2-12.9 7-27 15.3l-25.6 15-.1 63.7V495H95V267.2c0-146.7.4-229.2 1-232 2-8.4 8.6-15.4 16.4-17.2 4.5-1.1 5.7-1.1 10 .1z"/><path d="M120.2 103.7l.3 59.8 25.9 14.7c14.3 8.2 26.3 14.8 26.8 14.8.4 0 .8-26.3.8-58.4V76.1l-26.2-15.7c-14.5-8.6-26.6-15.9-27.1-16.1-.4-.2-.6 26.5-.5 59.4zM199 127.3v35.3l56.1 32c30.9 17.5 56.8 32 57.5 32.2 1.2.3 1.4-5.5 1.4-33v-33.3l-56.9-34.3C225.9 107.4 200 92 199.6 92c-.3 0-.6 15.9-.6 35.3zM120 265.1c0 58.9.3 74 1.3 73.6.6-.3 12.7-7.2 26.7-15.5l25.5-15v-86.6L151 208.7c-12.4-7-24.4-13.9-26.7-15.3l-4.3-2.5v74.2zM204.2 204.7l.3 6.6 45.8 26c36.4 20.7 45.5 26.3 44.5 27.2-.7.7-21.4 13-46 27.5L204 318.3V331l3.3-1.7c1.9-1 26.6-15.5 55.1-32.3l51.7-30.5-.3-3.4c-.3-3.4-.4-3.5-54.3-34.2-29.7-17-54.4-30.8-54.8-30.9-.4 0-.7 3-.5 6.7z"/><path d="M204 264.5v25.7l4.8-2.9c2.7-1.5 12.5-7.3 21.9-12.8 9.4-5.5 16.9-10.3 16.7-10.6-.2-.4-8.6-5.3-18.6-11-10.1-5.6-19.8-11.1-21.5-12.2l-3.3-1.9v25.7z"/></svg>